<svg xmlns="http://www.w3.org/2000/svg" version="1.1" xmlns:xlink="http://www.w3.org/1999/xlink" xmlns:svgjs="http://svgjs.dev/svgjs" width="1000" height="1000"><style>
    #light-icon {
      display: inline;
    }
    #dark-icon {
      display: none;
    }

    @media (prefers-color-scheme: dark) {
      #light-icon {
        display: none;
      }
      #dark-icon {
        display: inline;
      }
    }
  </style><g id="light-icon"><svg xmlns="http://www.w3.org/2000/svg" version="1.1" xmlns:xlink="http://www.w3.org/1999/xlink" xmlns:svgjs="http://svgjs.dev/svgjs" width="1000" height="1000"><g clip-path="url(#SvgjsClipPath1862)"><rect width="1000" height="1000" fill="#299717"></rect><g transform="matrix(16.666666666666668,0,0,16.666666666666668,100,100)"><svg xmlns="http://www.w3.org/2000/svg" version="1.1" xmlns:xlink="http://www.w3.org/1999/xlink" xmlns:svgjs="http://svgjs.dev/svgjs" width="48px" height="48px"><svg xmlns="http://www.w3.org/2000/svg" height="48px" viewBox="0 -960 960 960" width="48px" fill="#FFFFFF"><path d="M320-480v80q0 66 47 113t113 47q66 0 113-47t47-113v-80H320Zm160 180q-42 0-71-29t-29-71v-20h200v20q0 42-29 71t-71 29ZM340-680q-38 0-67.5 27.5T231-577l58 14q6-26 20-41.5t31-15.5q17 0 31 15.5t20 41.5l58-14q-12-48-41.5-75.5T340-680Zm280 0q-38 0-67.5 27.5T511-577l58 14q6-26 20-41.5t31-15.5q17 0 31 15.5t20 41.5l58-14q-12-48-41.5-75.5T620-680ZM480-80q-83 0-156-31.5T197-197q-54-54-85.5-127T80-480q0-83 31.5-156T197-763q54-54 127-85.5T480-880q83 0 156 31.5T763-763q54 54 85.5 127T880-480q0 83-31.5 156T763-197q-54 54-127 85.5T480-80Z"></path></svg></svg></g></g><defs><clipPath id="SvgjsClipPath1862"><rect width="1000" height="1000" x="0" y="0" rx="250" ry="250"></rect></clipPath></defs></svg></g><g id="dark-icon"><svg xmlns="http://www.w3.org/2000/svg" version="1.1" xmlns:xlink="http://www.w3.org/1999/xlink" xmlns:svgjs="http://svgjs.dev/svgjs" width="1000" height="1000"><g clip-path="url(#SvgjsClipPath1863)"><rect width="1000" height="1000" fill="#299717"></rect><g transform="matrix(16.666666666666668,0,0,16.666666666666668,100,100)"><svg xmlns="http://www.w3.org/2000/svg" version="1.1" xmlns:xlink="http://www.w3.org/1999/xlink" xmlns:svgjs="http://svgjs.dev/svgjs" width="48px" height="48px"><svg xmlns="http://www.w3.org/2000/svg" height="48px" viewBox="0 -960 960 960" width="48px" fill="#FFFFFF"><path d="M320-480v80q0 66 47 113t113 47q66 0 113-47t47-113v-80H320Zm160 180q-42 0-71-29t-29-71v-20h200v20q0 42-29 71t-71 29ZM340-680q-38 0-67.5 27.5T231-577l58 14q6-26 20-41.5t31-15.5q17 0 31 15.5t20 41.5l58-14q-12-48-41.5-75.5T340-680Zm280 0q-38 0-67.5 27.5T511-577l58 14q6-26 20-41.5t31-15.5q17 0 31 15.5t20 41.5l58-14q-12-48-41.5-75.5T620-680ZM480-80q-83 0-156-31.5T197-197q-54-54-85.5-127T80-480q0-83 31.5-156T197-763q54-54 127-85.5T480-880q83 0 156 31.5T763-763q54 54 85.5 127T880-480q0 83-31.5 156T763-197q-54 54-127 85.5T480-80Z"></path></svg></svg></g></g><defs><clipPath id="SvgjsClipPath1863"><rect width="1000" height="1000" x="0" y="0" rx="250" ry="250"></rect></clipPath></defs></svg></g></svg>